<svg xmlns="http://www.w3.org/2000/svg" viewBox="0 0 263 64">
  <g>
    <rect x="14.08" y="8.96" width="14.08" height="46.08" rx="2" fill="#EFE9DC"/>
    <rect x="14.08" y="40.96" width="35.84" height="14.08" rx="2" fill="#EFE9DC"/>
    <rect x="37.12" y="8.96" width="12.80" height="12.80" rx="2" fill="#E3A83D"/>
  </g>
  <g transform="translate(76.00 43.00) scale(0.030000 -0.030000)" fill="#EFE9DC">
    <path transform="translate(0.00 0)" d="M68 115H226V625H68V740H374V115H532V0H68Z"/>
    <path transform="translate(600.00 0)" d="M487 0Q441 0 413.0 23.5Q385 47 380 91H375Q361 40 319.5 14.0Q278 -12 218 -12Q143 -12 97.5 28.5Q52 69 52 142Q52 223 111.0 262.0Q170 301 284 301H367V327Q367 373 345.5 396.5Q324 420 273 420Q226 420 197.0 402.0Q168 384 147 355L66 427Q92 471 147.5 499.5Q203 528 290 528Q396 528 455.5 479.5Q515 431 515 333V107H572V0ZM274 85Q313 85 340.0 104.0Q367 123 367 159V221H288Q197 221 197 160V140Q197 113 218.0 99.0Q239 85 274 85Z"/>
    <path transform="translate(1200.00 0)" d="M66 0V123L353 401H76V516H524V393L237 115H534V0Z"/>
    <path transform="translate(1800.00 0)" d="M430 516H581L338 -83Q315 -140 277.0 -170.0Q239 -200 173 -200H71V-85H195L227 3L19 516H178L253 299L300 149H308L353 299Z"/>
    <path transform="translate(2400.00 0)" d="M30 0V516H149V440H156Q168 476 190.5 502.0Q213 528 254 528Q329 528 346 440H352Q358 458 367.0 474.0Q376 490 389.0 502.0Q402 514 420.0 521.0Q438 528 462 528Q570 528 570 369V0H451V354Q451 390 438.5 404.5Q426 419 406 419Q387 419 373.5 406.5Q360 394 360 368V0H240V354Q240 390 228.5 404.5Q217 419 197 419Q177 419 163.0 406.5Q149 394 149 368V0Z"/>
    <path transform="translate(3000.00 0)" d="M314 -12Q184 -12 117.0 60.0Q50 132 50 256Q50 319 67.5 369.5Q85 420 117.5 455.5Q150 491 196.5 509.5Q243 528 301 528Q359 528 405.0 509.5Q451 491 483.0 457.0Q515 423 532.5 374.5Q550 326 550 266V222H197V213Q197 163 228.0 132.5Q259 102 319 102Q365 102 398.0 119.5Q431 137 455 166L535 79Q505 42 451.0 15.0Q397 -12 314 -12ZM302 422Q254 422 225.5 392.5Q197 363 197 313V305H405V313Q405 364 377.5 393.0Q350 422 302 422Z"/>
  </g>
  <rect x="194.00" y="30" width="9" height="9" rx="2" fill="#E3A83D"/>
  <g transform="translate(217.00 39.00) scale(0.015000 -0.015000)" fill="#A79A85">
    <path transform="translate(0.00 0)" d="M84 0V698H345Q445 698 497.5 642.0Q550 586 550 488Q550 390 497.5 334.0Q445 278 345 278H196V0ZM196 371H328Q432 371 432 467V510Q432 605 328 605H196Z"/>
    <path transform="translate(706.67 0)" d="M416 307H184V0H72V698H184V401H416V698H528V0H416Z"/>
    <path transform="translate(1413.33 0)" d="M84 0V698H345Q445 698 497.5 642.0Q550 586 550 488Q550 390 497.5 334.0Q445 278 345 278H196V0ZM196 371H328Q432 371 432 467V510Q432 605 328 605H196Z"/>
  </g>
</svg>